<?xml version="1.0" encoding="utf-8"?>
<!-- Generator: Adobe Illustrator 16.0.0, SVG Export Plug-In . SVG Version: 6.00 Build 0)  -->
<!DOCTYPE svg PUBLIC "-//W3C//DTD SVG 1.1//EN" "http://www.w3.org/Graphics/SVG/1.1/DTD/svg11.dtd">
<svg version="1.1" id="Layer_1" xmlns="http://www.w3.org/2000/svg" xmlns:xlink="http://www.w3.org/1999/xlink" x="0px" y="0px"
	 width="792px" height="284.986px" viewBox="0 0 792 284.986" enable-background="new 0 0 792 284.986" xml:space="preserve">
<rect y="-20.039" fill="#FFFFFF" width="792" height="303.525"/>
<g>
	<g id="XMLID_1_">
		<g>
			<path fill="#FFFFFF" d="M817.11-18.739c-0.03,122.95-0.03,245.9,0,368.85c0,1.06-0.24,1.3-1.301,1.3
				c-139.84-0.029-279.689-0.029-419.529-0.029c-139.84,0-279.68,0-419.521,0.029c-1.06,0-1.3-0.24-1.3-1.3
				c0.03-122.95,0.03-245.9,0-368.85c0-1.07,0.24-1.3,1.3-1.3c279.68,0.02,559.36,0.02,839.05,0
				C816.87-20.039,817.11-19.809,817.11-18.739z M773.2,233.241c1.79-0.13,2.06-1.03,2.02-2.62c-0.189-7.319,0.21-14.64-0.55-21.96
				c-0.3-2.81-0.52-5.64-0.979-8.42c-0.57-3.47-1.36-6.91-2.421-10.3c-1.8-5.67-4.289-10.88-8.75-14.97
				c-3.5-3.21-7.819-4.22-12.27-3.5c-4.47,0.73-8.3,2.98-11.25,6.7c-3.86,4.851-2.5,9.891,1.81,12.4c1.82,1.07,3.851,0.69,5-0.79
				c1.36-1.76,1.83-5.67-0.449-7.38c-0.261-0.2-0.63-0.4-0.63-0.83c2.85-1.72,6.26-1.68,8.64,0.04c0.57,0.41,0.62,0.55,0.16,1.09
				c-1.49,1.75-2.21,3.79-2.101,6.25c0.63-0.25,1-0.52,1.4-0.729c1.81-0.96,3.62-1.551,5.8-1.13c3.59,0.689,5.97,5.43,6.11,8.55
				c0.05,1.12-0.17,1.569-1.42,1.49c-4.12-0.261-8.23,0.13-12.25,0.909c-4.29,0.82-8.42,2.2-12.061,4.73
				c-2.47,1.71-4.399,3.84-5.779,6.57c-1.44,2.859-1.761,5.819-1.631,8.899c0.21,5.16,2.4,9.311,6.62,12.26
				c4.471,3.12,9.57,3.32,14.69,2.471c5.14-0.86,9.3-3.58,12.649-7.931c0,1.021-0.069,1.761,0.021,2.49
				c0.17,1.41,0.41,2.78,1.37,3.96C768.65,233.601,770.88,233.411,773.2,233.241z M728.54,172.621c0.33-0.81,0.22-1-0.59-0.99
				c-3.07,0.01-6.13,0-9.2,0.01c-0.29,0-0.64-0.13-0.76,0.38c-0.23,1.03-0.63,2.02-0.811,3.05c-0.21,1.15-0.66,1.23-1.52,0.59
				c-4.36-3.2-9.271-3.84-14.41-2.86c-4.66,0.88-7.59,5.541-6.04,9.92l-1.65,0.6c-1.449-4.01-2.899-8.03-4.319-12.1
				c-2.41,3.96-4.351,7.61-5.34,11.7c-0.33,1.37-0.301,2.78,0.31,3.95c1.46,2.771,2.25,5.79,3.47,8.641
				c1.511,3.51,2.771,7.13,4.17,10.689c0.561,1.41,1.36,2.73,1.771,4.181c1.1,3.89,2.78,7.539,4.27,11.279
				c0.551,1.391,1.04,2.721,0.32,4.3c-1.99,4.351-4.64,8.2-8.18,11.431c-1.67,1.52-3.24,3.12-4.28,5.17
				c-1.16,2.27-1.45,4.71-1.82,7.18c-0.199,1.33,0.23,1.3,1.04,1.09c4.181-1.06,7.78-3.26,10.95-6.08
				c3.61-3.22,6.3-7.159,8.57-11.47c2.51-4.76,4.76-9.61,6.72-14.6c1.71-4.391,3.37-8.79,5.03-13.19c1.85-4.92,3.66-9.85,5.5-14.78
				c1.09-2.909,2.2-5.81,3.29-8.729C726.2,178.861,727.31,175.71,728.54,172.621z M674.47,194.301c4.471-2.42,4.48-9.12,2.311-12.74
				c-2.511-4.18-6.08-7.28-10.66-9.09c-4.7-1.86-9.18-1.52-13.48,1.23c-2.58,1.641-4.75,3.7-6.68,6.05
				c-0.54-2.21-0.44-4.359-0.42-6.51c0.02-0.73-0.09-1.09-0.97-1.07c-2.73,0.06-5.471,0.07-8.2,0c-0.97-0.03-1,0.39-1.05,1.16
				c-0.141,2.45,0.319,4.86,0.31,7.3c-0.01,12.399,0.09,24.81-0.05,37.21c-0.05,4.14,2.1,6.96,4.62,9.729
				c1.67,1.83,3.54,3.47,5.52,4.96c0.391,0.29,0.63,1,1.23,0.75c0.609-0.24,0.26-0.91,0.27-1.37c0.021-11.319,0-22.64,0.03-33.96
				c0-1.56,0.28-3.03,1.29-4.41c0.9-1.21,1.86-2.33,2.93-3.35c2.771-2.63,4.17-2.97,7.62-0.76c0.41,0.27,0.68,0.63,1.05,0.91
				c0.29,0.229,0.53,0.77,0.851,0.619c0.29-0.13,0.41-0.63,0.41-1.079c0.02-2.11-0.21-4.16-1.46-5.94
				c-0.301-0.43-0.33-0.59,0.21-0.771c0.949-0.319,1.859-0.72,2.899-0.81c2.7-0.229,5.021,0.51,7.12,2.5
				c-1.99,1.1-3.52,2.5-3.87,4.91c-0.22,1.52,0.7,4.28,2.04,5.09C670.5,196.151,672.58,195.321,674.47,194.301z M628.61,233.21
				c1.83-0.1,1.979-1.01,1.949-2.52c-0.119-6.95,0.091-13.89-0.55-20.83c-0.279-3.06-0.529-6.13-0.979-9.15
				c-0.54-3.579-1.351-7.13-2.45-10.59c-1.88-5.91-4.41-11.38-9.311-15.5c-3.399-2.86-7.409-3.82-11.539-3.17
				c-5.23,0.82-9.57,3.53-12.461,8.17c-2.56,4.101-1.199,8.41,2.49,10.86c1.57,1.05,4.2,0.84,5.12-0.42
				c1.95-2.69,2.05-6.23-1.16-8.43c2.94-1.421,5.74-2.061,8.65-0.141c0.82,0.54,0.74,0.851,0.21,1.49c-1.4,1.7-2.08,3.63-1.74,5.93
				c0.98-0.51,1.851-1.029,2.76-1.43c2.341-1,4.75-0.88,6.67,0.689c2.431,1.98,3.69,4.69,3.53,7.95c-0.04,0.83-0.29,1.021-1.05,1
				c-3.84-0.12-7.64,0.181-11.44,0.8c-4.35,0.711-8.47,2.011-12.239,4.301c-7.08,4.31-10.07,12.85-7.54,20.06
				c1.359,3.88,3.46,7.23,7.37,9.09c6.229,2.95,12.47,2.53,18.609-0.17c2.8-1.229,5.101-3.25,7.05-5.84
				c0.131,1.2,0.131,2.23,0.37,3.2c0.41,1.66,0.971,3.28,2.65,4.149C625.19,233.541,626.88,233.301,628.61,233.21z M583.23,174.781
				c2.67-4.01,3.05-8.19,0.869-12.56c-0.83-1.67-1.93-3.15-3.14-4.53c-2.2-2.55-4.57-4.96-7.7-6.33
				c-5.47-2.42-10.689-1.11-15.569,1.64c-2.07,1.16-3.971,2.7-5.721,4.4c-1.33,1.28-2.75,2.51-4.029,3.85
				c-1.16,1.22-2.25,2.52-3.29,3.85c-1.431,1.83-2.74,3.75-4.19,5.56c-1.6,2.01-3.39,3.88-4.96,5.92c-2.2,2.87-4.26,5.851-6.6,9.09
				c0-0.92,0-1.479,0-2.029c0-11.84-0.011-23.68,0.02-35.52c0-1.79-0.16-3.55-0.3-5.32c-0.07-0.78-0.2-1-1.12-0.54
				c-3.05,1.49-5.51,3.68-7.93,5.98c-2.051,1.95-3.101,4.29-3.11,7.06c-0.02,25.75-0.01,51.51,0,77.26c0,0.34-0.18,0.74,0.25,1.07
				c3.021-1.54,5.66-3.561,8.13-5.921c2.88-2.75,4.15-5.949,4.09-9.89c-0.1-6.08-0.01-12.17-0.05-18.25
				c-0.01-0.88,0.3-1.45,0.88-2.08c2.53-2.79,5-5.63,7.5-8.47c2.88,3.77,5.33,7.899,8.05,11.85c2.58,3.74,4.87,7.67,7.471,11.391
				c2.8,3.989,5.43,8.08,8.14,12.109c1.38,2.05,2.9,4.04,5.09,5.271c4.76,2.649,9.9,3.96,15.5,3.979c-0.21-0.38-0.35-0.71-0.54-1
				c-2.77-4.34-5.739-8.55-8.7-12.76c-2.85-4.05-5.52-8.229-8.27-12.35c-2.45-3.66-4.83-7.36-7.39-10.94
				c-1.141-1.6-2.21-3.25-3.311-4.88c-2.24-3.29-4.359-6.68-6.75-9.88c-0.37-0.5-0.359-0.8-0.13-1.351
				c0.58-1.35,1.67-2.27,2.62-3.279c2.59-2.74,4.65-5.94,7.36-8.58c1.409-1.38,4.06-2.03,5.869-0.99c1.311,0.76,2.19,1.89,3.24,2.88
				c0.3,0.28,0.46,0.71,0.96,0.55c0.521-0.16,0.61-0.64,0.641-1.09c0.12-2.2,0.51-4.42-0.431-6.55c-0.149-0.35-0.33-0.71,0.28-0.83
				c3.37-0.69,6.45-0.2,9.03,2.22c1.439,1.35,1.42,1.41-0.45,2.31c-3.31,1.6-3.91,4.37-2.98,7.43c0.271,0.88,0.421,1.93,1.36,2.48
				C576.43,178.46,581.59,177.25,583.23,174.781z M509.67,219.071c-0.03-7.42-0.02-14.84-0.02-22.26c0-4.26-0.74-8.37-2.82-12.141
				c-2.34-4.22-5.66-7.369-10.28-8.979c-4.88-1.7-9.83-2.12-14.819-0.37c-3.471,1.2-6.311,3.35-9,5.85
				c-0.641-0.75-0.48-1.68-0.7-2.489c-1.261-4.61-3.41-8.55-8.08-10.46c-2.97-1.21-6.07-1.59-9.34-1.2
				c-2.92,0.34-5.67,0.83-8.11,2.62c-2.92,2.14-4.13,7.74-2.22,10.819c1.239,2,3.39,2.65,5.43,1.61c2.35-1.21,3.32-3.13,3.1-5.79
				c-0.06-0.689-0.89-1.52-0.18-2c0.521-0.36,1.42,0.12,2.14,0.22c2.53,0.351,4.44,1.601,5.23,4.19c0.23,0.74,0.21,1.21-0.7,1.6
				c-1.92,0.82-3.569,2.03-4.33,4.471c1.28-0.471,2.391-0.19,3.511-0.11c1.76,0.12,1.92,0.31,1.92,2.02c0,9.29,0,18.58,0,27.87
				c0,6.271,0,12.54,0,18.94c0.659-0.08,0.96-0.45,1.31-0.75c2.23-1.92,4.18-4.1,6.05-6.35c2.42-2.931,3.851-6.15,3.73-10.12
				c-0.19-5.931,0-11.88-0.08-17.82c-0.03-2.42,0.46-4.62,1.59-6.74c2.91-5.49,8.57-9.68,15.66-8.189c4.01,0.84,6.85,3.21,8.49,6.84
				c1.439,3.18,1.77,6.63,1.76,10.12c-0.03,7.5-0.01,15-0.01,22.5c0,3.16,0,6.31,0.01,9.47c0,0.3-0.18,0.7,0.26,0.85
				c0.29,0.101,0.54-0.06,0.75-0.27c3.41-3.4,6.94-6.69,9.08-11.11C509.44,221.021,509.67,220.101,509.67,219.071z M438.82,219.321
				c0.14-15.56,0.06-31.13,0.08-46.69c0-0.81-0.23-1.03-1.03-1.02c-2.92,0.05-5.851,0.06-8.771,0c-0.989-0.02-1.3,0.26-1.27,1.26
				c0.06,2.73,0,5.47,0.03,8.2c0.01,0.85-0.15,1.13-1.13,0.93c-3.921-0.819-7.82-0.76-11.551,0.82c-1.91,0.811-3.79,1.71-5.189,3.42
				c-1.721,2.13-1.66,4.61-1.3,6.97c0.409,2.771,1.779,4.69,4.229,4.75c3.82,0.101,6.61-3.989,5.13-7.659
				c-0.29-0.721-0.359-1.23,0.57-1.11c3.21,0.43,5.86,1.75,7.42,4.79c0.43,0.84,0.31,1.16-0.61,1.45
				c-2.35,0.739-3.899,2.39-4.939,4.569c0.34,0.271,0.63,0.261,0.89,0.181c2.22-0.66,4.11-0.03,5.84,1.399
				c0.36,0.311,0.601,0.63,0.601,1.051c0.02,2.739,0.38,5.529-0.061,8.189c-1.34,8.09-8.13,14.05-16.359,13.43
				c-3.591-0.27-6.591-1.97-8.511-5.04c-2.029-3.26-3.01-6.96-3.04-10.79c-0.09-11.789-0.029-23.579-0.04-35.37
				c0-0.4,0.23-0.97-0.17-1.16c-0.51-0.23-0.81,0.34-1.14,0.65c-2.08,2-4.11,4.07-5.81,6.41c-2.41,3.3-4.39,6.72-4.24,11.11
				c0.2,6.17-0.01,12.35,0.08,18.53c0.03,2.56,0.31,5.119,0.85,7.63c1.08,5,2.91,9.64,6.88,13.13c2.33,2.03,5.07,3.359,8.07,3.939
				c3.04,0.58,6.15,0.54,9.22,0.03c3.99-0.66,7.58-2.21,10.641-4.93c1.77-1.58,3.239-3.41,4.72-5.51
				c0.399,3.27,0.55,6.329,0.689,9.6c2.381-1.3,4.41-2.75,6.051-4.811C437.62,225.201,438.79,222.331,438.82,219.321z
				 M382.48,177.401c0.22-1.5,0.06-3.04,0.06-4.56c-4.77,0.57-7.98,2.84-9.16,7.74c-1.96-3.12-4.44-5.1-7.29-6.689
				c-4.12-2.3-8.49-2.65-13.06-1.99c-5.59,0.81-10.39,3.06-14.05,7.48c-5.85,7.079-8.54,15.09-7.41,24.34
				c0.68,5.52,2.27,10.68,5.8,15.029c1.29,1.601,2.73,3.03,4.33,4.23l-1.16,0.229c-1.44-1.369-3.17-2.199-5.37-1.989
				c-3.12,0.3-5.57,2.069-6.93,4.85c-1.78,3.64-2.76,7.51-2.62,11.66c0.12,3.82,1.66,6.74,4.68,8.96c4.37,3.2,9.51,3.979,14.67,4.42
				c3.49,0.3,7.03,0,10.55-0.17c4.04-0.2,7.98-0.64,11.79-2.07c4.4-1.66,7.92-4.45,10.39-8.42c3.1-4.99,4.52-10.54,4.55-16.38
				c0.06-14.43,0.02-28.87,0.02-43.31C382.27,179.641,382.32,178.531,382.48,177.401z M317.92,225.25
				c1.51-2.069,2.79-4.31,2.69-7.17c-0.18-4.949-0.03-9.91-0.06-14.859c-0.02-3.931,0.22-7.87-0.54-11.78
				c-1.5-7.73-5.56-13.3-13.18-15.9c-7-2.39-13.6-1.699-19.68,2.721c-1.25,0.899-2.41,1.899-3.65,3.02
				c-0.42-1.84-0.8-3.56-1.44-5.21c-1.69-4.36-4.59-7.36-9.26-8.53c-2.86-0.72-5.72-0.84-8.63-0.44
				c-5.36,0.72-10.23,3.28-9.87,10.38c0.13,2.46,1.74,4.67,3.99,5.16c1.4,0.3,3.96-1.28,4.89-2.99c0.96-1.79,0.38-3.6,0.05-5.43
				c0.82-0.19,1.5,0.239,2.25,0.27c2.53,0.08,4.78,1.94,5.44,4.3c0.19,0.67,0.24,1.141-0.66,1.49c-2,0.78-3.59,2.08-4.43,4.57
				c1.36-0.65,2.49-0.29,3.62-0.2c1.2,0.09,1.9,0.45,1.89,1.95c-0.06,15.189-0.03,30.38-0.03,45.58c0,0.399,0,0.81,0,1.239
				c0.66,0.061,0.93-0.359,1.27-0.659c2.21-1.92,4.18-4.07,6.03-6.33c2.38-2.891,3.89-6.04,3.78-9.971
				c-0.18-6.51-0.05-13.02-0.05-19.529c0.01-0.471-0.05-0.971,0.09-1.41c1.94-6.17,5.4-10.82,12.22-12.05
				c3.97-0.721,7.51,0.16,10.5,2.91c3.64,3.319,4.53,7.8,4.6,12.369c0.17,11.131,0.05,22.261,0.06,33.4c0,0.38-0.25,0.91,0.26,1.13
				c0.49,0.21,0.74-0.27,1.04-0.55C313.59,230.42,315.94,227.971,317.92,225.25z M255.71,233.111c1.13-0.18,1.5-0.56,1.46-1.69
				c-0.2-6.21,0.19-12.42-0.25-18.64c-0.2-2.79-0.32-5.61-0.69-8.38c-0.63-4.84-1.47-9.65-2.96-14.34
				c-1.75-5.51-4.14-10.59-8.35-14.68c-3.58-3.48-8-4.661-12.67-3.9c-5.19,0.85-9.36,3.59-12.33,8.22
				c-2.48,3.87-0.88,8.94,2.86,10.91c2.1,1.11,4.4,0.46,5.46-1.63c1.14-2.24,0.78-4.7-0.94-6.59c-0.28-0.311-1.03-0.601-0.17-1.15
				c2.1-1.33,5.95-1.17,8.1,0.28c0.7,0.47,0.68,0.7,0.14,1.32c-1.46,1.68-2.1,3.68-1.97,5.92c0.68,0.09,1.03-0.32,1.45-0.601
				c2.51-1.609,6.05-1.7,7.94-0.16c2.45,2,3.66,4.641,3.9,7.78c0.07,0.97-0.1,1.39-1.25,1.36c-3.19-0.101-6.36,0.029-9.54,0.49
				c-4.75,0.689-9.31,1.819-13.48,4.27c-2.1,1.23-4,2.68-5.51,4.65c-2.65,3.43-3.58,7.29-3.37,11.56c0.27,5.23,2.37,9.49,6.7,12.43
				c4.52,3.091,9.63,3.24,14.84,2.351c5.08-0.86,9.03-3.62,12.45-7.79c0,1.149-0.02,1.95,0,2.75c0.05,2.46,1.73,4.819,4,5.35
				C252.9,233.521,254.3,233.331,255.71,233.111z M214.32,74.401c0.2-5.79,0.04-11.6,0.04-17.4c-0.19-1.05,0.72-2.41-0.85-3.08
				c-0.07-0.22-0.19-0.44-0.2-0.65c-0.19-4.85-1.03-9.6-1.89-14.35c-0.39-2.1-0.85-4.19-1.28-6.27c0.09-0.97-0.14-1.85-0.66-3.03
				c-0.22,1.26-0.38,2.16,0.08,3.03c0,0.09,0.01,0.18,0.03,0.27c-0.06,1.09-0.03,2.17,0.52,3.15c0.1,2.03,0.2,4.05,0.29,6.07
				c0.46,10.93,0.53,21.84-1.02,32.72c-1.02,7.13-2.47,14.14-4.83,20.96c-2.47,7.09-5.73,13.77-10.27,19.78
				c-1.35,1.79-2.6,3.66-4.19,5.27c-0.32,0.32-1.41,0.85-0.34,1.65c3.21,2.4,3.21,2.41,5.83-0.67c0.12-0.14,0.25-0.28,0.38-0.42
				c2.27-2.45,4.23-5.17,5.93-8.01c1.78-2.96,3.43-6.01,4.91-9.17c2.23-4.76,3.43-9.81,4.87-14.81c0.52-1.81,0.8-3.68,1.09-5.51
				C213.25,80.751,214.2,77.611,214.32,74.401z M205.4,217.5c2.33-5,2.94-10.35,2.15-15.75c-1-6.8-4.95-11.619-10.94-14.819
				c-2.08-1.11-4.23-2.09-6.6-2.84c1.25-0.671,2.32-1.23,3.37-1.811c2.8-1.53,5.19-3.59,7.11-6.09c3.36-4.34,4.36-9.29,3.79-14.77
				c-0.48-4.58-2.16-8.37-5.44-11.56c-3.54-3.45-7.81-5.58-12.51-6.75c-4.49-1.12-9.16-1.17-13.78-1.53
				c0.23-1.19,0.46-2.39,0.67-3.58c0.07-0.42,0.17-0.89-0.28-1.15c-0.39-0.23-0.72,0.1-1.02,0.29c-2.22,1.39-4.29,2.99-6.26,4.72
				c-0.3,0.1-0.61,0.3-0.91,0.29c-2.2-0.01-4.37,0.23-6.55,0.53c-1.05,0.15-2.21,0.71-3.41,0.16c8.22-8.14,14.16-17.54,17.75-28.62
				c-0.61,0.22-0.72,0.59-0.9,0.9c-1.61,2.75-3.39,5.4-5.37,7.87c-2.57,3.22-5.31,6.29-8.41,9.07c-5.5,4.94-11.54,8.99-18.15,12.25
				c-3.38,1.66-6.85,3.08-10.41,4.29c-3.42,1.15-6.86,2.32-10.38,3.11c-4.3,0.96-8.69,1.62-12.97,2.69
				c-1.9,0.48-3.52,1.61-4.78,3.11c-1.37,1.64-1.05,3.77,0.67,5.02c1.6,1.16,3.4,1.68,5.38,1.85c4.76,0.4,9.25-0.86,13.7-2.16
				c3.4-0.99,6.73-2.27,10-3.68c5.84-2.52,11.38-5.54,16.43-9.42c1.24-0.96,2.51-1.88,3.9-2.92c0,2.23,0,4.25,0,6.27
				c-5.88,3.7-11.56,7.69-18.01,11.27c2.01,0.35,3.41,0.96,4.73,1.78c0.43,0.26,0.78,0.11,1.17-0.13c2.65-1.59,5.26-3.23,7.98-4.69
				c1.4-0.76,2.5-2.02,4.12-2.38c0.01,0.56,0.04,1.13,0.04,1.7c0,14.189,0,28.39,0,42.59c0,9.25,0.01,18.49-0.02,27.74
				c0,0.939,0.18,1.5,1.25,1.58c3.63,0.27,7.27,0.63,10.9,0.779c6.8,0.29,13.62,0.181,20.36-1.079c5.65-1.061,11.09-2.631,15.6-6.48
				C201.91,222.991,204.01,220.481,205.4,217.5z M192.15,131.421c0.13-1.89-0.83-3.23-2.22-4.31c-4.29-3.33-11.23-3.35-15.56-0.06
				c-2.25,1.72-3.47,4.06-4.24,7.1c0.71-0.6,1.13-0.95,1.55-1.31c3.91-3.35,7-3.66,11.45-1.13c1.76,0.99,3.51,2.01,5.54,2.39
				C190.61,134.471,192.01,133.381,192.15,131.421z M177.72,139.921c1.82-0.03,3.26-1.54,3.24-3.39c-0.02-1.95-1.49-3.4-3.4-3.36
				c-1.84,0.05-3.34,1.66-3.29,3.53C174.31,138.431,175.95,139.951,177.72,139.921z M178.59,38.451c1.13-0.88,1.55-2.08,1.18-3.22
				c-0.4-1.19-1.73-1.91-2.96-1.72c-2.2,0.34-4.5,0.31-6.54,1.43c-0.46,0.03-0.95-0.02-1.39,0.12c-2.72,0.82-5.47,1.48-8.25,2.08
				c-0.85,0.19-1.71,0.39-2.56,0.58c-0.1,0.01-0.19,0.01-0.29,0.02c-4.56-0.21-9.07,0.96-13.67,0.39c1.12,0.68,2.11,1.51,3.47,1.33
				c2.47,0.83,4.98,1.41,7.57,1.84c5.85,0.97,11.63,1.26,17.46-0.03C174.85,40.771,176.79,39.851,178.59,38.451z M172.8,26.571
				c0.68-1.55,1.48-3.18,1.05-5.3c-0.42,0.63-0.64,1.07-0.97,1.46c-1.74,2.05-4.04,3.29-6.34,4.47c-2.63,1.34-5.47,2.11-8.35,2.84
				c-4.64,1.19-9.36,1.55-14.07,2.07c-3.5,0.39-7.05,0.28-10.57,0.44c-4.05,0.18-8.11,0.25-12.16,0.44
				c-3.7,0.17-7.37,0.44-11.04,1.01c-4,0.61-7.86,1.39-11.46,3.38c-3.98,2.22-6.04,6.17-4.48,10.66c0.66,1.9,1.37,3.79,2.18,5.63
				c0.34,0.76,0.2,1.75,1.03,2.42c0.12-0.33,0.22-0.54,0.27-0.76c0.06-0.27,0.1-0.56,0.12-0.84c0.14-2.85,0.92-5.5,2.19-8.08
				c2.23-4.56,6.14-7.12,10.64-8.65c3.44-1.17,7.05-1.71,10.69-1.88c0.98-0.04,1.95-0.06,2.93-0.05c6.98,0.03,13.96,0.2,20.93,0.2
				c6.09,0,12.21,0.38,18.12-1.72C167.58,32.851,171,30.631,172.8,26.571z M172.83,90.801c0-0.19,0.03-0.38,0-0.55
				c-1.23-6.69-3.5-13-6.96-18.86c-6.92-11.68-16.54-20.45-28.78-26.29c-7.11-3.39-14.58-5.37-22.55-4.78
				c-2.65,0.2-5.22,0.78-7.61,2c-3.46,1.77-5.81,5.35-5.13,9.51c1.04,6.35,4.76,10.73,10.24,13.76c3.63,2.01,7.62,2.96,11.67,3.66
				c7.15,1.24,14.38,1.95,21.47,3.52c6.16,1.36,12.09,3.3,17.4,6.82C166.89,82.451,170.27,86.191,172.83,90.801z M165.03,51.601
				c1.74-0.28,2.83-1.66,2.57-3.27c-0.29-1.78-1.17-2.48-3.44-2.58c-3.53-0.16-7.07,0.05-10.6-0.31c-1.3-0.14-2.39-1.12-3.87-0.79
				c0.07,0.22,0.09,0.37,0.16,0.48c0.11,0.15,0.24,0.28,0.38,0.41c2.45,2.36,5.24,4.17,8.43,5.4
				C160.75,51.741,162.85,51.961,165.03,51.601z M164.94,95.861c1.98-0.96,3.08-3.33,2.55-5.46c-0.39-1.54-1.24-2.86-2.31-3.99
				c-4.89-5.11-10.9-8.25-17.73-9.89c-0.93-0.22-1.91-0.34-3.11-0.16c1.48,0.98,2.8,1.75,4.01,2.66c3.76,2.83,6.34,6.65,8.82,10.56
				c1.2,1.9,2.26,3.92,3.92,5.48C162.42,96.311,163.57,96.521,164.94,95.861z M163.15,113.971c2.29-0.04,4.09-1.94,4.08-4.32
				c0-2.4-1.88-4.31-4.26-4.33c-2.19-0.01-4.23,2.05-4.23,4.27C158.74,112.011,160.76,114.011,163.15,113.971z M155.46,126.361
				c2.18,0,3.89-1.79,3.85-4.01c-0.03-2-1.82-3.85-3.76-3.88c-2.1-0.04-3.92,1.82-3.92,4.01
				C151.63,124.611,153.35,126.361,155.46,126.361z M154.92,104.781c1.47-7.86-1.79-14.18-7-19.8c0.3,0.98,0.65,1.95,0.88,2.94
				c0.94,4.08,0.17,8.04-0.92,11.98c-0.69,2.53-1.79,4.98-1.89,7.65c-0.09,2.46,1.49,3.67,3.84,3.05
				C152.84,109.811,154.4,107.601,154.92,104.781z M148.74,131.631c0.03-1.82-1.45-3.34-3.27-3.37c-1.82-0.02-3.35,1.42-3.42,3.24
				c-0.07,1.72,1.65,3.51,3.37,3.5C147.15,135.001,148.72,133.411,148.74,131.631z M138.62,108.091c2.63-5.13,4.52-10.47,3.08-16.43
				c-1.01-4.15-2.98-7.42-7.37-8.61c-2.39-0.65-4.85-0.62-7.31-0.62c-4.25,0.01-8.56,0.38-12.75-1.74c0.63,2.15,0.99,4.11,0.95,6.13
				c-0.13,6.32-2.92,11.61-6.5,16.56c-3.01,4.17-6.56,7.87-10.1,11.6c-4.28,4.51-8.82,8.77-12.63,13.71
				c-1.77,2.28-3.32,4.67-4.14,7.49c-1.25,4.3,0.5,7.23,4.88,8.15c2.92,0.62,5.83,0.4,8.68-0.28c6.3-1.51,12.04-4.3,17.39-7.89
				C123.65,128.871,132.6,119.801,138.62,108.091z M138.71,179.571c1.36-1.36,1.57-3.729,0.51-5.66c-0.56-1-1.29-1.85-2.17-2.58
				c-3.09-2.57-6.77-3.6-10.66-4.03c-4.67-0.53-9.12,0.34-13.36,2.44c0.71-0.03,1.41-0.07,2.11-0.11c2.04-0.09,4.03,0.06,5.99,0.72
				c3.45,1.16,5.86,3.67,8.2,6.27c1.1,1.23,2.17,2.49,3.61,3.351C134.88,181.131,137.31,180.96,138.71,179.571z M138.5,138.731
				c0.04-1.6-1.24-2.87-2.85-2.86c-1.57,0.01-2.73,1.21-2.73,2.81c0,1.54,1.28,2.86,2.75,2.84
				C137.19,141.491,138.47,140.231,138.5,138.731z M126.18,144.911c1.3-0.01,2.28-1.03,2.28-2.36c0-1.3-1.01-2.31-2.31-2.33
				c-1.24-0.01-2.28,1.06-2.28,2.36C123.88,143.861,124.92,144.911,126.18,144.911z M125.03,181.381
				c1.48-1.061,1.59-2.721,0.32-4.48c-0.74-1.02-1.71-1.76-2.75-2.42c-2.71-1.73-5.68-2.56-9-2.23c1.61,1.15,2.92,2.52,3.9,4.18
				c0.84,1.42,1.56,2.91,2.46,4.279C120.93,182.191,123.51,182.46,125.03,181.381z M112.3,183.271c1.04-0.67,2.02-1.44,0.68-2.76
				c-0.22-0.21-0.3-0.58-0.43-0.88c-0.69-1.631-0.85-1.69-2.29-0.511c-1.38,1.13-2.79,2.221-4.22,3.261
				c-3.77,2.75-7.18,5.899-10.59,9.06c-3.16,2.92-5.97,6.19-8.68,9.53c-3.35,4.13-6.26,8.54-8.78,13.229
				c-2.28,4.25-3.83,8.75-5.04,13.391c-0.91,3.489-1.34,7.06-1.66,10.64c0.12,0.01,0.24,0.02,0.36,0.03
				c0.12-0.54,0.25-1.08,0.37-1.62c0.35-1.66,0.48-3.391,1.08-4.95c1.62-4.23,3.03-8.54,5.33-12.53c2.26-3.93,4.58-7.8,7.36-11.39
				c2.73-3.53,5.69-6.87,8.89-9.98c3.52-3.399,7.08-6.77,11.04-9.68C107.91,186.491,110.01,184.75,112.3,183.271z M110.65,149.111
				c-0.22-0.41-0.54-0.32-0.8-0.3c-3.66,0.38-7.26,1.05-10.73,2.35c-11.85,4.47-21.51,11.91-29.41,21.71
				c-5.65,7-9.63,14.83-11.07,23.799c-0.47,2.94-0.81,5.91,0.06,8.83c0.61,2.011,1.96,2.65,3.95,1.94c1.72-0.62,3.13-1.72,4.41-2.99
				c3.67-3.63,6.5-7.83,8.26-12.68c1.28-3.5,2.42-7.04,3.58-10.57c4.59-13.93,13.55-23.9,26.94-29.89
				C107.45,150.591,109.04,149.851,110.65,149.111z M107.74,74.901c1.18-1.74,1.42-3.66,0.55-5.64c-0.61-1.36-2.02-2.31-3.3-2.24
				c-1.6,0.08-1.78,1.4-2.03,2.5c-0.64,2.73-2.12,4.77-4.75,6.14c1.32,1.06,2.64,1.51,4.05,1.71
				C104.6,77.701,106.44,76.801,107.74,74.901z M95.51,111.601c5.33-4.55,10.09-9.67,13.41-16.01c-2.18,1.69-4.5,3.12-6.93,4.4
				c-6.78,3.55-14.22,5.5-21.09,8.81c-2.59,1.25-5.23,2.42-6.47,5.34c-0.78,1.81-0.06,4.57,1.49,5.05c1.97,0.61,3.99,0.76,5.99,0.18
				C87.07,117.901,91.5,115.021,95.51,111.601z M101.81,66.141c1.41-1.56,1.43-1.92,0.22-3.62c-0.49-0.69-1.04-1.34-1.69-1.88
				c-3.06-2.57-6.31-2.14-8.61,1.12c-3.05,4.34-2.39,11.44,1.66,15.92c-0.06-0.59-0.1-0.92-0.14-1.24c-0.45-3.95,0.6-5.9,4.11-7.63
				C98.92,68.041,100.59,67.481,101.81,66.141z M83.56,125.941c1.56-1.6,3.21-3.14,4.33-5.14c-2.13,1.3-4.42,2.15-6.72,2.89
				c-4.2,1.35-8.54,2.15-12.84,3.08c-2.93,0.64-5.87,1.22-8.64,2.51c-3.13,1.46-5.22,3.68-5.7,7.13c-0.3,2.17,0.3,4.16,2.28,5.38
				c2.15,1.32,4.51,0.95,6.69,0.2c4.01-1.36,7.34-3.9,10.59-6.55C77.13,132.531,80.36,129.251,83.56,125.941z M85.95,150.631
				c-2.22,0.31-3.89,1.06-5.56,1.75c-3.03,1.26-5.86,2.91-8.7,4.55c-2.94,1.7-5.63,3.73-8.31,5.75c-2.23,1.69-4.13,3.8-6.21,5.71
				c-4.88,4.49-8.96,9.689-12.79,15.05c-3.39,4.74-6.41,9.729-8.82,15.06c-1.48,3.29-3.08,6.54-4.18,10
				c-1.19,3.75-2.53,7.45-3.2,11.37c-0.39,2.33-0.83,4.61-0.62,6.971c0.27,2.949,2.44,4.319,5.04,3.01
				c2.54-1.28,4.74-2.99,6.48-5.32c2.9-3.86,4.97-8.189,7.03-12.5c1.63-3.43,2.92-7.02,4.36-10.54
				c1.83-4.479,3.62-8.979,5.52-13.439c1.78-4.19,3.51-8.431,5.71-12.4c2.93-5.28,6.03-10.48,10.26-14.91
				C75.92,156.601,80.24,153.041,85.95,150.631z M75.52,148.731c-1.32,0.43-2.65,0.8-3.97,1.21c-3.72,1.16-7.03,3.12-10.33,5.05
				c-4.57,2.67-8.83,5.8-12.86,9.26c-4.51,3.87-8.81,7.94-12.78,12.34c-3.92,4.369-7.58,8.939-10.87,13.84
				c-4.59,6.85-8.51,14.02-11.19,21.83c-1.39,4.04-3.07,8.05-2.35,12.479c0.1,0.66-0.39,1.4,0.61,1.94
				c1.16,0.63,2.21,1.029,3.44,0.41c3.44-1.721,5.47-4.771,6.9-8.091c2.3-5.319,4.34-10.76,6.81-16.029
				c2.3-4.9,4.91-9.601,7.59-14.29c2.86-4.99,6.23-9.59,9.75-14.09c4.24-5.42,9.09-10.28,14.28-14.78c3.01-2.62,6.14-5.09,9.53-7.22
				C71.95,151.411,73.87,150.271,75.52,148.731z"/>
			<path fill="#2F4F2C" d="M775.22,230.621c0.04,1.59-0.229,2.49-2.02,2.62c-2.32,0.17-4.55,0.36-6.25-1.75
				c-0.96-1.18-1.2-2.55-1.37-3.96c-0.09-0.729-0.021-1.47-0.021-2.49c-3.35,4.351-7.51,7.07-12.649,7.931
				c-5.12,0.85-10.22,0.649-14.69-2.471c-4.22-2.949-6.41-7.1-6.62-12.26c-0.13-3.08,0.19-6.04,1.631-8.899
				c1.38-2.73,3.31-4.86,5.779-6.57c3.641-2.53,7.771-3.91,12.061-4.73c4.02-0.779,8.13-1.17,12.25-0.909
				c1.25,0.079,1.47-0.37,1.42-1.49c-0.141-3.12-2.521-7.86-6.11-8.55c-2.18-0.421-3.99,0.17-5.8,1.13
				c-0.4,0.21-0.771,0.479-1.4,0.729c-0.109-2.46,0.61-4.5,2.101-6.25c0.46-0.54,0.41-0.68-0.16-1.09
				c-2.38-1.72-5.79-1.76-8.64-0.04c0,0.43,0.369,0.63,0.63,0.83c2.279,1.71,1.81,5.62,0.449,7.38c-1.149,1.48-3.18,1.86-5,0.79
				c-4.31-2.51-5.67-7.55-1.81-12.4c2.95-3.72,6.78-5.97,11.25-6.7c4.45-0.72,8.77,0.29,12.27,3.5c4.461,4.09,6.95,9.3,8.75,14.97
				c1.061,3.39,1.851,6.83,2.421,10.3c0.46,2.78,0.68,5.61,0.979,8.42C775.43,215.981,775.03,223.301,775.22,230.621z
				 M765.01,205.341c0.07-0.91-0.2-1.171-1.14-1.19c-4.67-0.07-9.271,0.36-13.72,1.8c-2.87,0.92-5.32,2.5-6.91,5.15
				c-0.73,1.22-0.95,2.63-1.28,4.02c-0.99,4.17,1.58,8.311,5.26,9.7c2.04,0.771,4.15,1.1,6.37,0.61c4.5-0.99,7.88-3.28,9.73-7.641
				c1.31-3.09,1.77-6.3,1.67-9.62C764.99,207.221,764.94,206.281,765.01,205.341z"/>
			<path fill="#FFFFFF" d="M763.87,204.151c0.939,0.02,1.21,0.28,1.14,1.19c-0.069,0.939-0.02,1.88-0.02,2.829
				c0.1,3.32-0.36,6.53-1.67,9.62c-1.851,4.36-5.23,6.65-9.73,7.641c-2.22,0.489-4.33,0.16-6.37-0.61c-3.68-1.39-6.25-5.53-5.26-9.7
				c0.33-1.39,0.55-2.8,1.28-4.02c1.59-2.65,4.04-4.23,6.91-5.15C754.6,204.511,759.2,204.081,763.87,204.151z"/>
			<path fill="#2F4F2C" d="M727.95,171.631c0.81-0.01,0.92,0.18,0.59,0.99c-1.23,3.089-2.34,6.24-3.51,9.36
				c-1.09,2.92-2.2,5.82-3.29,8.729c-1.84,4.931-3.65,9.86-5.5,14.78c-1.66,4.4-3.32,8.8-5.03,13.19
				c-1.96,4.989-4.21,9.84-6.72,14.6c-2.271,4.311-4.96,8.25-8.57,11.47c-3.17,2.82-6.77,5.021-10.95,6.08
				c-0.81,0.21-1.239,0.24-1.04-1.09c0.37-2.47,0.66-4.91,1.82-7.18c1.04-2.05,2.61-3.65,4.28-5.17
				c3.54-3.23,6.189-7.08,8.18-11.431c0.72-1.579,0.23-2.909-0.32-4.3c-1.489-3.74-3.17-7.39-4.27-11.279
				c-0.41-1.45-1.21-2.771-1.771-4.181c-1.399-3.56-2.659-7.18-4.17-10.689c-1.22-2.851-2.01-5.87-3.47-8.641
				c-0.61-1.17-0.64-2.58-0.31-3.95c0.989-4.09,2.93-7.739,5.34-11.7c1.42,4.07,2.87,8.09,4.319,12.1
				c3.71,10.25,7.421,20.38,10.71,30.68c1.141-1.77,1.211-3.81,1.83-5.67c1.08-3.189,2.21-6.38,3.11-9.63
				c0.55-2.03,1.521-4.03,0.89-6.29c-0.359-1.33-1.819-2.97-3.26-3.21c-0.45-0.069-0.899-0.14-1.34-0.28
				c-0.42-0.13-1.08,0.171-1.2-0.409c-0.05-0.25,0.46-0.641,0.75-0.95c1.41-1.521,3.29-1.94,5.28-2.15
				c-0.62-3.229-2.36-5.359-5.58-6.279c-1.04-0.301-1.31-0.03-1.18,0.909c0.479,3.5-1.851,5.351-5.29,5.7
				c-1.471,0.16-2.21-1.14-2.74-2.22c-0.13-0.26-0.24-0.53-0.33-0.8c-1.55-4.38,1.38-9.04,6.04-9.92
				c5.14-0.98,10.05-0.34,14.41,2.86c0.859,0.641,1.31,0.561,1.52-0.59c0.181-1.03,0.58-2.02,0.811-3.05
				c0.12-0.51,0.47-0.38,0.76-0.38C721.82,171.631,724.88,171.641,727.95,171.631z"/>
			<path fill="#FFFFFF" d="M710.1,192.411c0.631,2.26-0.34,4.26-0.89,6.29c-0.9,3.25-2.03,6.44-3.11,9.63
				c-0.619,1.86-0.689,3.9-1.83,5.67c-3.289-10.3-7-20.43-10.71-30.68l1.65-0.6c0.09,0.27,0.2,0.54,0.33,0.8
				c0.53,1.08,1.27,2.38,2.74,2.22c3.439-0.35,5.77-2.2,5.29-5.7c-0.13-0.939,0.14-1.21,1.18-0.909c3.22,0.92,4.96,3.05,5.58,6.279
				c-1.99,0.21-3.87,0.63-5.28,2.15c-0.29,0.31-0.8,0.7-0.75,0.95c0.12,0.58,0.78,0.279,1.2,0.409c0.44,0.141,0.89,0.211,1.34,0.28
				C708.28,189.441,709.74,191.081,710.1,192.411z"/>
			<path fill="#2F4F2C" d="M676.78,181.561c2.17,3.62,2.16,10.32-2.311,12.74c-1.89,1.02-3.97,1.85-6.13,0.56
				c-1.34-0.81-2.26-3.57-2.04-5.09c0.351-2.41,1.88-3.811,3.87-4.91c-2.1-1.99-4.42-2.729-7.12-2.5
				c-1.04,0.09-1.95,0.49-2.899,0.81c-0.54,0.181-0.511,0.341-0.21,0.771c1.25,1.78,1.479,3.83,1.46,5.94
				c0,0.449-0.12,0.949-0.41,1.079c-0.32,0.15-0.561-0.39-0.851-0.619c-0.37-0.28-0.64-0.641-1.05-0.91
				c-3.45-2.21-4.85-1.87-7.62,0.76c-1.069,1.02-2.029,2.14-2.93,3.35c-1.01,1.38-1.29,2.851-1.29,4.41
				c-0.03,11.32-0.01,22.641-0.03,33.96c-0.01,0.46,0.34,1.13-0.27,1.37c-0.601,0.25-0.84-0.46-1.23-0.75
				c-1.979-1.49-3.85-3.13-5.52-4.96c-2.521-2.77-4.67-5.59-4.62-9.729c0.14-12.4,0.04-24.811,0.05-37.21
				c0.01-2.44-0.45-4.851-0.31-7.3c0.05-0.77,0.08-1.19,1.05-1.16c2.729,0.07,5.47,0.06,8.2,0c0.88-0.02,0.989,0.34,0.97,1.07
				c-0.021,2.15-0.12,4.3,0.42,6.51c1.93-2.35,4.1-4.409,6.68-6.05c4.301-2.75,8.78-3.09,13.48-1.23
				C670.7,174.281,674.27,177.381,676.78,181.561z"/>
			<path fill="#2F4F2C" d="M630.56,230.691c0.03,1.51-0.119,2.42-1.949,2.52c-1.73,0.091-3.42,0.33-5.03-0.5
				c-1.68-0.869-2.24-2.489-2.65-4.149c-0.239-0.97-0.239-2-0.37-3.2c-1.949,2.59-4.25,4.61-7.05,5.84
				c-6.14,2.7-12.38,3.12-18.609,0.17c-3.91-1.859-6.011-5.21-7.37-9.09c-2.53-7.21,0.46-15.75,7.54-20.06
				c3.77-2.29,7.89-3.59,12.239-4.301c3.801-0.619,7.601-0.92,11.44-0.8c0.76,0.021,1.01-0.17,1.05-1c0.16-3.26-1.1-5.97-3.53-7.95
				c-1.92-1.569-4.329-1.689-6.67-0.689c-0.909,0.4-1.779,0.92-2.76,1.43c-0.34-2.3,0.34-4.229,1.74-5.93
				c0.53-0.64,0.61-0.95-0.21-1.49c-2.91-1.92-5.71-1.28-8.65,0.141c3.21,2.199,3.11,5.739,1.16,8.43
				c-0.92,1.26-3.55,1.47-5.12,0.42c-3.689-2.45-5.05-6.76-2.49-10.86c2.891-4.64,7.23-7.35,12.461-8.17
				c4.13-0.65,8.14,0.31,11.539,3.17c4.9,4.12,7.431,9.59,9.311,15.5c1.1,3.46,1.91,7.011,2.45,10.59
				c0.45,3.021,0.7,6.091,0.979,9.15C630.65,216.801,630.44,223.741,630.56,230.691z M620.34,207.441c0.01-3.26,0-3.26-4.24-3.26
				c-2.81,0.12-6.609,0.47-10.3,1.689c-3.96,1.3-7.149,3.311-8.3,7.681c-1.46,5.58,0.74,10.33,6.52,11.75
				c1.461,0.359,2.961,0.47,4.54,0.159c4.181-0.819,7.471-2.77,9.521-6.59C620,215.291,620.31,211.391,620.34,207.441z"/>
			<path fill="#FFFFFF" d="M616.1,204.181c4.24,0,4.25,0,4.24,3.26c-0.03,3.95-0.34,7.85-2.26,11.43
				c-2.05,3.82-5.34,5.771-9.521,6.59c-1.579,0.311-3.079,0.2-4.54-0.159c-5.779-1.42-7.979-6.17-6.52-11.75
				c1.15-4.37,4.34-6.381,8.3-7.681C609.49,204.651,613.29,204.301,616.1,204.181z"/>
			<path fill="#2F4F2C" d="M584.1,162.221c2.181,4.37,1.801,8.55-0.869,12.56c-1.641,2.47-6.801,3.68-9.311,2.23
				c-0.939-0.551-1.09-1.601-1.36-2.48c-0.93-3.06-0.329-5.83,2.98-7.43c1.87-0.9,1.89-0.96,0.45-2.31
				c-2.58-2.42-5.66-2.91-9.03-2.22c-0.61,0.12-0.43,0.48-0.28,0.83c0.94,2.13,0.551,4.35,0.431,6.55
				c-0.03,0.45-0.12,0.93-0.641,1.09c-0.5,0.16-0.66-0.27-0.96-0.55c-1.05-0.99-1.93-2.12-3.24-2.88
				c-1.81-1.04-4.46-0.39-5.869,0.99c-2.71,2.64-4.771,5.84-7.36,8.58c-0.95,1.01-2.04,1.93-2.62,3.279
				c-0.229,0.551-0.24,0.851,0.13,1.351c2.391,3.2,4.51,6.59,6.75,9.88c1.101,1.63,2.17,3.28,3.311,4.88
				c2.56,3.58,4.939,7.28,7.39,10.94c2.75,4.12,5.42,8.3,8.27,12.35c2.961,4.21,5.931,8.42,8.7,12.76c0.19,0.29,0.33,0.62,0.54,1
				c-5.6-0.02-10.74-1.33-15.5-3.979c-2.189-1.23-3.71-3.221-5.09-5.271c-2.71-4.029-5.34-8.12-8.14-12.109
				c-2.601-3.721-4.891-7.65-7.471-11.391c-2.72-3.95-5.17-8.08-8.05-11.85c-2.5,2.84-4.97,5.68-7.5,8.47
				c-0.58,0.63-0.89,1.2-0.88,2.08c0.04,6.08-0.05,12.17,0.05,18.25c0.061,3.94-1.21,7.14-4.09,9.89
				c-2.47,2.36-5.109,4.381-8.13,5.921c-0.43-0.33-0.25-0.73-0.25-1.07c-0.01-25.75-0.02-51.51,0-77.26
				c0.01-2.77,1.06-5.11,3.11-7.06c2.42-2.3,4.88-4.49,7.93-5.98c0.92-0.46,1.05-0.24,1.12,0.54c0.14,1.77,0.3,3.53,0.3,5.32
				c-0.03,11.84-0.02,23.68-0.02,35.52c0,0.55,0,1.109,0,2.029c2.34-3.239,4.399-6.22,6.6-9.09c1.57-2.04,3.36-3.91,4.96-5.92
				c1.45-1.81,2.76-3.73,4.19-5.56c1.04-1.33,2.13-2.63,3.29-3.85c1.279-1.34,2.699-2.57,4.029-3.85c1.75-1.7,3.65-3.24,5.721-4.4
				c4.88-2.75,10.1-4.06,15.569-1.64c3.13,1.37,5.5,3.78,7.7,6.33C582.17,159.071,583.27,160.551,584.1,162.221z"/>
			<path fill="#E67817" d="M509.65,196.811c0,7.42-0.011,14.84,0.02,22.26c0,1.03-0.229,1.95-0.67,2.84
				c-2.14,4.42-5.67,7.71-9.08,11.11c-0.21,0.21-0.46,0.37-0.75,0.27c-0.439-0.149-0.26-0.55-0.26-0.85
				c-0.01-3.16-0.01-6.31-0.01-9.47c0-7.5-0.021-15,0.01-22.5c0.01-3.49-0.32-6.94-1.76-10.12c-1.641-3.63-4.48-6-8.49-6.84
				c-7.09-1.49-12.75,2.699-15.66,8.189c-1.13,2.12-1.62,4.32-1.59,6.74c0.08,5.94-0.11,11.89,0.08,17.82
				c0.12,3.97-1.311,7.189-3.73,10.12c-1.87,2.25-3.819,4.43-6.05,6.35c-0.35,0.3-0.65,0.67-1.31,0.75c0-6.4,0-12.67,0-18.94
				c0-9.29,0-18.58,0-27.87c0-1.71-0.16-1.899-1.92-2.02c-1.12-0.08-2.23-0.36-3.511,0.11c0.761-2.44,2.41-3.65,4.33-4.471
				c0.91-0.39,0.931-0.859,0.7-1.6c-0.79-2.59-2.7-3.84-5.23-4.19c-0.72-0.1-1.619-0.58-2.14-0.22c-0.71,0.48,0.12,1.311,0.18,2
				c0.221,2.66-0.75,4.58-3.1,5.79c-2.04,1.04-4.19,0.39-5.43-1.61c-1.91-3.079-0.7-8.68,2.22-10.819c2.44-1.79,5.19-2.28,8.11-2.62
				c3.27-0.39,6.37-0.01,9.34,1.2c4.67,1.91,6.819,5.85,8.08,10.46c0.22,0.81,0.06,1.739,0.7,2.489c2.689-2.5,5.529-4.649,9-5.85
				c4.989-1.75,9.939-1.33,14.819,0.37c4.62,1.61,7.94,4.76,10.28,8.979C508.91,188.441,509.65,192.551,509.65,196.811z"/>
			<path fill="#E67817" d="M438.9,172.631c-0.021,15.56,0.06,31.13-0.08,46.69c-0.03,3.01-1.2,5.88-3.17,8.35
				c-1.641,2.061-3.67,3.511-6.051,4.811c-0.14-3.271-0.29-6.33-0.689-9.6c-1.48,2.1-2.95,3.93-4.72,5.51
				c-3.061,2.72-6.65,4.27-10.641,4.93c-3.069,0.51-6.18,0.55-9.22-0.03c-3-0.58-5.74-1.909-8.07-3.939
				c-3.97-3.49-5.8-8.13-6.88-13.13c-0.54-2.511-0.82-5.07-0.85-7.63c-0.09-6.181,0.12-12.36-0.08-18.53
				c-0.15-4.391,1.83-7.811,4.24-11.11c1.7-2.34,3.73-4.41,5.81-6.41c0.33-0.31,0.63-0.88,1.14-0.65c0.4,0.19,0.17,0.76,0.17,1.16
				c0.011,11.791-0.05,23.581,0.04,35.37c0.03,3.83,1.011,7.53,3.04,10.79c1.92,3.07,4.92,4.771,8.511,5.04
				c8.229,0.62,15.02-5.34,16.359-13.43c0.44-2.66,0.08-5.45,0.061-8.189c0-0.421-0.24-0.74-0.601-1.051
				c-1.729-1.43-3.62-2.06-5.84-1.399c-0.26,0.08-0.55,0.09-0.89-0.181c1.04-2.18,2.59-3.83,4.939-4.569
				c0.92-0.29,1.04-0.61,0.61-1.45c-1.56-3.04-4.21-4.36-7.42-4.79c-0.93-0.12-0.86,0.39-0.57,1.11c1.48,3.67-1.31,7.76-5.13,7.659
				c-2.45-0.06-3.82-1.979-4.229-4.75c-0.36-2.359-0.421-4.84,1.3-6.97c1.399-1.71,3.279-2.609,5.189-3.42
				c3.73-1.58,7.63-1.64,11.551-0.82c0.979,0.2,1.14-0.08,1.13-0.93c-0.03-2.729,0.029-5.47-0.03-8.2c-0.03-1,0.28-1.28,1.27-1.26
				c2.92,0.06,5.851,0.05,8.771,0C438.67,171.601,438.9,171.821,438.9,172.631z"/>
			<path fill="#E67717" d="M382.54,172.841c0,1.52,0.16,3.06-0.06,4.56c-0.16,1.13-0.21,2.24-0.21,3.36
				c0,14.439,0.04,28.88-0.02,43.31c-0.03,5.84-1.45,11.39-4.55,16.38c-2.47,3.97-5.99,6.76-10.39,8.42
				c-3.81,1.431-7.75,1.87-11.79,2.07c-3.52,0.17-7.06,0.47-10.55,0.17c-5.16-0.44-10.3-1.22-14.67-4.42
				c-3.02-2.22-4.56-5.14-4.68-8.96c-0.14-4.15,0.84-8.021,2.62-11.66c1.36-2.78,3.81-4.55,6.93-4.85c2.2-0.21,3.93,0.62,5.37,1.989
				c0.58,0.551,1.12,1.2,1.61,1.891c0.5,0.71,0.15,2.72-0.6,3.52c-2.21,2.33-3.92,2.92-7.83,1.19c-1.08,2.81,0.23,6.71,2.73,8.28
				c0.73,0.46,0.79-0.23,1-0.54c1.09-1.67,2.5-2.87,4.45-3.44c0.74-0.229,0.8-0.08,0.65,0.61c-0.25,1.09-0.56,2.18-0.48,3.31
				c0.1,1.351,0.57,2.39,2.03,2.851c3.79,1.189,7.66,2.119,11.64,2.05c8.65-0.15,13.76-4.57,15.73-13.12
				c0.72-3.141,1.04-6.36,0.89-9.601c-0.02-0.359,0.12-0.75-0.21-1.14c-1.23,0.86-1.97,2.17-3.12,3.12
				c-3.09,2.52-6.52,4.1-10.46,4.65c-3.33,0.47-6.59,0.38-9.87-0.471c-2.64-0.689-4.96-1.85-7-3.39c-1.6-1.2-3.04-2.63-4.33-4.23
				c-3.53-4.35-5.12-9.51-5.8-15.029c-1.13-9.25,1.56-17.261,7.41-24.34c3.66-4.421,8.46-6.67,14.05-7.48
				c4.57-0.66,8.94-0.31,13.06,1.99c2.85,1.59,5.33,3.569,7.29,6.689C374.56,175.681,377.77,173.411,382.54,172.841z
				 M373.81,199.401c0.06-1.99-0.31-3.92-0.6-5.86c-0.92-6.18-4.61-11.29-10.78-13c-2.08-0.58-4.34-1.279-6.31-0.819
				c-7.02,1.62-11.91,5.729-13.51,13.1c-0.69,3.17-0.85,6.34-0.57,9.58c0.32,3.68,1.07,7.21,3.08,10.32
				c3.24,4.989,10.15,7.479,15.9,6.06c4.23-1.03,7.53-3.3,9.85-7.01C373.24,207.96,373.53,203.691,373.81,199.401z"/>
			<path fill="#FEFEFE" d="M373.21,193.541c0.29,1.94,0.66,3.87,0.6,5.86c-0.28,4.29-0.57,8.56-2.94,12.37
				c-2.32,3.71-5.62,5.979-9.85,7.01c-5.75,1.42-12.66-1.07-15.9-6.06c-2.01-3.11-2.76-6.641-3.08-10.32
				c-0.28-3.24-0.12-6.41,0.57-9.58c1.6-7.37,6.49-11.479,13.51-13.1c1.97-0.46,4.23,0.239,6.31,0.819
				C368.6,182.25,372.29,187.361,373.21,193.541z"/>
			<path fill="#FFFFFF" d="M372.36,220.21c0.15,3.24-0.17,6.46-0.89,9.601c-1.97,8.55-7.08,12.97-15.73,13.12
				c-3.98,0.069-7.85-0.86-11.64-2.05c-1.46-0.461-1.93-1.5-2.03-2.851c-0.08-1.13,0.23-2.22,0.48-3.31
				c0.15-0.69,0.09-0.84-0.65-0.61c-1.95,0.57-3.36,1.771-4.45,3.44c-0.21,0.31-0.27,1-1,0.54c-2.5-1.57-3.81-5.471-2.73-8.28
				c3.91,1.729,5.62,1.14,7.83-1.19c0.75-0.8,1.1-2.81,0.6-3.52c-0.49-0.69-1.03-1.34-1.61-1.891l1.16-0.229
				c2.04,1.54,4.36,2.7,7,3.39c3.28,0.851,6.54,0.94,9.87,0.471c3.94-0.551,7.37-2.131,10.46-4.65c1.15-0.95,1.89-2.26,3.12-3.12
				C372.48,219.46,372.34,219.851,372.36,220.21z"/>
			<path fill="#E67817" d="M320.61,218.081c0.1,2.86-1.18,5.101-2.69,7.17c-1.98,2.721-4.33,5.17-6.81,7.48
				c-0.3,0.28-0.55,0.76-1.04,0.55c-0.51-0.22-0.26-0.75-0.26-1.13c-0.01-11.14,0.11-22.27-0.06-33.4
				c-0.07-4.569-0.96-9.05-4.6-12.369c-2.99-2.75-6.53-3.631-10.5-2.91c-6.82,1.229-10.28,5.88-12.22,12.05
				c-0.14,0.439-0.08,0.939-0.09,1.41c0,6.51-0.13,13.02,0.05,19.529c0.11,3.931-1.4,7.08-3.78,9.971
				c-1.85,2.26-3.82,4.41-6.03,6.33c-0.34,0.3-0.61,0.72-1.27,0.659c0-0.43,0-0.84,0-1.239c0-15.2-0.03-30.391,0.03-45.58
				c0.01-1.5-0.69-1.86-1.89-1.95c-1.13-0.09-2.26-0.45-3.62,0.2c0.84-2.49,2.43-3.79,4.43-4.57c0.9-0.35,0.85-0.82,0.66-1.49
				c-0.66-2.359-2.91-4.22-5.44-4.3c-0.75-0.03-1.43-0.46-2.25-0.27c0.33,1.83,0.91,3.64-0.05,5.43c-0.93,1.71-3.49,3.29-4.89,2.99
				c-2.25-0.49-3.86-2.7-3.99-5.16c-0.36-7.1,4.51-9.66,9.87-10.38c2.91-0.4,5.77-0.28,8.63,0.44c4.67,1.17,7.57,4.17,9.26,8.53
				c0.64,1.65,1.02,3.37,1.44,5.21c1.24-1.12,2.4-2.12,3.65-3.02c6.08-4.42,12.68-5.11,19.68-2.721
				c7.62,2.601,11.68,8.17,13.18,15.9c0.76,3.91,0.52,7.85,0.54,11.78C320.58,208.17,320.43,213.131,320.61,218.081z"/>
			<path fill="#E67817" d="M257.17,231.42c0.04,1.131-0.33,1.511-1.46,1.69c-1.41,0.22-2.81,0.41-4.18,0.09
				c-2.27-0.53-3.95-2.89-4-5.35c-0.02-0.8,0-1.601,0-2.75c-3.42,4.17-7.37,6.93-12.45,7.79c-5.21,0.89-10.32,0.74-14.84-2.351
				c-4.33-2.939-6.43-7.199-6.7-12.43c-0.21-4.27,0.72-8.13,3.37-11.56c1.51-1.971,3.41-3.42,5.51-4.65
				c4.17-2.45,8.73-3.58,13.48-4.27c3.18-0.461,6.35-0.591,9.54-0.49c1.15,0.029,1.32-0.391,1.25-1.36
				c-0.24-3.14-1.45-5.78-3.9-7.78c-1.89-1.54-5.43-1.449-7.94,0.16c-0.42,0.28-0.77,0.69-1.45,0.601
				c-0.13-2.24,0.51-4.24,1.97-5.92c0.54-0.62,0.56-0.851-0.14-1.32c-2.15-1.45-6-1.61-8.1-0.28c-0.86,0.55-0.11,0.84,0.17,1.15
				c1.72,1.89,2.08,4.35,0.94,6.59c-1.06,2.09-3.36,2.74-5.46,1.63c-3.74-1.97-5.34-7.04-2.86-10.91c2.97-4.63,7.14-7.37,12.33-8.22
				c4.67-0.76,9.09,0.42,12.67,3.9c4.21,4.09,6.6,9.17,8.35,14.68c1.49,4.689,2.33,9.5,2.96,14.34c0.37,2.77,0.49,5.59,0.69,8.38
				C257.36,219,256.97,225.21,257.17,231.42z M246.97,205.361c0.07-0.88-0.17-1.19-1.14-1.2c-4.65-0.069-9.23,0.311-13.66,1.8
				c-3.9,1.301-6.89,3.54-7.99,7.811c-0.91,3.5-0.57,7.28,3.11,9.95c2.48,1.8,5.27,2.26,8.24,1.68c4.55-0.88,7.94-3.24,9.76-7.63
				c1.3-3.13,1.77-6.37,1.67-9.73C246.96,207.151,246.9,206.25,246.97,205.361z"/>
			<path fill="#FEFEFE" d="M245.83,204.161c0.97,0.01,1.21,0.32,1.14,1.2c-0.07,0.89-0.01,1.79-0.01,2.68
				c0.1,3.36-0.37,6.601-1.67,9.73c-1.82,4.39-5.21,6.75-9.76,7.63c-2.97,0.58-5.76,0.12-8.24-1.68c-3.68-2.67-4.02-6.45-3.11-9.95
				c1.1-4.271,4.09-6.51,7.99-7.811C236.6,204.471,241.18,204.091,245.83,204.161z"/>
			<path fill="#82C224" d="M214.36,57.001c0,5.8,0.16,11.61-0.04,17.4c-0.12,3.21-1.07,6.35-1.56,9.53
				c-0.29,1.83-0.57,3.7-1.09,5.51c-1.44,5-2.64,10.05-4.87,14.81c-1.48,3.16-3.13,6.21-4.91,9.17c-1.7,2.84-3.66,5.56-5.93,8.01
				c-0.13,0.14-0.26,0.28-0.38,0.42c-2.62,3.08-2.62,3.07-5.83,0.67c-1.07-0.8,0.02-1.33,0.34-1.65c1.59-1.61,2.84-3.48,4.19-5.27
				c4.54-6.01,7.8-12.69,10.27-19.78c2.36-6.82,3.81-13.83,4.83-20.96c1.55-10.88,1.48-21.79,1.02-32.72
				c-0.09-2.02-0.19-4.04-0.29-6.07c-0.06-1.07-0.06-2.15-0.52-3.15c-0.02-0.09-0.03-0.18-0.03-0.27c0.05-0.28,0.09-0.56,0.17-1.06
				c0.17,0.49,0.11,0.85,0.41,1.06c0.43,2.08,0.89,4.17,1.28,6.27c0.86,4.75,1.7,9.5,1.89,14.35c0.01,0.21,0.13,0.43,0.2,0.65
				C213.64,54.991,213.12,56.241,214.36,57.001z"/>
			<path fill="#BADF81" d="M213.51,53.921c1.57,0.67,0.66,2.03,0.85,3.08C213.68,56.081,214.28,54.811,213.51,53.921z"/>
			<path fill="#BADF81" d="M213.51,53.921c0.77,0.89,0.17,2.16,0.85,3.08C213.12,56.241,213.64,54.991,213.51,53.921z"/>
			<path fill="#B5CF75" d="M209.48,29.621c0.52,1.18,0.75,2.06,0.66,3.03c-0.31-0.32,0.13-0.95-0.46-1.18
				c-0.35,0.4-0.25,0.79-0.12,1.18C209.1,31.781,209.26,30.881,209.48,29.621z"/>
			<path fill="#B5CF75" d="M209.68,31.471c0.59,0.23,0.15,0.86,0.46,1.18c-0.3-0.21-0.24-0.57-0.41-1.06
				c-0.08,0.5-0.12,0.78-0.17,1.06C209.43,32.261,209.33,31.871,209.68,31.471z"/>
			<path fill="#B5CF75" d="M209.59,32.921c0.46,1,0.46,2.08,0.52,3.15C209.75,35.051,209.82,33.961,209.59,32.921z"/>
			<path fill="#B5CF75" d="M209.59,32.921c0.23,1.04,0.16,2.13,0.52,3.15C209.56,35.091,209.53,34.011,209.59,32.921z"/>
			<path fill="#E67817" d="M207.55,201.75c0.79,5.4,0.18,10.75-2.15,15.75c-1.39,2.98-3.49,5.49-6.03,7.65
				c-4.51,3.85-9.95,5.42-15.6,6.48c-6.74,1.26-13.56,1.369-20.36,1.079c-3.63-0.149-7.27-0.51-10.9-0.779
				c-1.07-0.08-1.25-0.641-1.25-1.58c0.03-9.25,0.02-18.49,0.02-27.74c0-14.2,0-28.4,0-42.59c0-0.57-0.03-1.14-0.04-1.7
				c0-1.95,0.01-3.9,0.01-5.85c0-2.02,0-4.04,0-6.27c-1.39,1.04-2.66,1.96-3.9,2.92c-5.05,3.88-10.59,6.9-16.43,9.42
				c-3.27,1.41-6.6,2.69-10,3.68c-4.45,1.3-8.94,2.56-13.7,2.16c-1.98-0.17-3.78-0.69-5.38-1.85c-1.72-1.25-2.04-3.38-0.67-5.02
				c1.26-1.5,2.88-2.63,4.78-3.11c4.28-1.07,8.67-1.73,12.97-2.69c3.52-0.79,6.96-1.96,10.38-3.11c3.56-1.21,7.03-2.63,10.41-4.29
				c6.61-3.26,12.65-7.31,18.15-12.25c3.1-2.78,5.84-5.85,8.41-9.07c1.98-2.47,3.76-5.12,5.37-7.87c0.18-0.31,0.29-0.68,0.9-0.9
				c-3.59,11.08-9.53,20.48-17.75,28.62c1.2,0.55,2.36-0.01,3.41-0.16c2.18-0.3,4.35-0.54,6.55-0.53c0.3,0.01,0.61-0.19,0.91-0.29
				c2.31,0.28,4.59-0.3,6.89-0.28c4.62,0.36,9.29,0.41,13.78,1.53c4.7,1.17,8.97,3.3,12.51,6.75c3.28,3.19,4.96,6.98,5.44,11.56
				c0.57,5.48-0.43,10.43-3.79,14.77c-1.92,2.5-4.31,4.56-7.11,6.09c-1.05,0.58-2.12,1.14-3.37,1.811c2.37,0.75,4.52,1.729,6.6,2.84
				C202.6,190.131,206.55,194.951,207.55,201.75z M190.61,215.951c2.4-3.77,3.69-7.95,2.8-12.479c-0.68-3.48-2.34-6.44-5.41-9.011
				c0.5,2.44,0.52,4.54,0.2,6.631c-0.63,4.09-2.91,7.25-5.94,9.88c-2.79,2.42-6.86,3.489-10.01,0.55c-1.19-1.11-2.46-2.37-2.51-4.04
				c-0.09-2.57,3.15-4.68,5.68-3.98c1.36,0.381,2.42,1.25,3.61,2.08c1.37-3.279,1.17-6.22-0.97-9.029
				c-1.75,1.85-3.86,2.689-6.49,2.819c0.21-0.47,0.32-0.779,0.48-1.05c2.31-3.92,0.63-6.56-3.37-8.15
				c-2.21-0.88-4.15-0.399-6.24,0.08c-0.78,0.181-0.99,0.36-0.99,1.12c0.03,10.13,0.03,20.271,0,30.41c0,0.87,0.26,1.01,1.1,1.12
				c2.15,0.29,4.33,0.04,6.46,0.31c5.72,0.74,11.1-0.239,16.13-3.02C187.18,219.071,189.36,217.92,190.61,215.951z M188.1,173.041
				c2.34-3.44,3-6.92,2.13-10.71c-0.48-2.12-1.34-4.04-2.8-5.68c-3.63-4.07-8.41-5.36-13.58-5.68c-3.58-0.21-7.11,0.43-10.67,0.57
				c-1.23,0.05-1.78,0.53-1.76,1.98c0.1,7.73,0.11,15.46,0,23.189c-0.02,1.61,0.37,2.45,1.99,2.53c1.57,0.09,3.13,1.061,4.73,0
				c0.65-0.439,1.41-0.72,2.11-1.1c2.77-1.51,3.48-3.76,2.09-6.57c-0.26-0.52-0.52-1.03-0.79-1.59c2.32-0.12,3.77,0.4,5.42,2.01
				c0.5,0.49,0.83,0.81,1.44,0.11c1.8-2.07,1.91-6.2,0.13-8.35c-0.86,1.05-1.94,1.75-3.24,2.1c-1.8,0.48-3.97-0.45-5.34-2.6
				c-0.81-1.27-0.17-2.61,0.47-3.84c2.05-3.89,7.61-4.04,10.56-2.01c3.12,2.15,5.31,5.07,6.54,8.69
				C188.26,168.271,188.14,170.531,188.1,173.041z"/>
			<path fill="#FFFFFF" d="M193.41,203.471c0.89,4.529-0.4,8.71-2.8,12.479c-1.25,1.97-3.43,3.12-5.47,4.24
				c-5.03,2.78-10.41,3.76-16.13,3.02c-2.13-0.27-4.31-0.02-6.46-0.31c-0.84-0.11-1.1-0.25-1.1-1.12c0.03-10.14,0.03-20.28,0-30.41
				c0-0.76,0.21-0.939,0.99-1.12c2.09-0.479,4.03-0.96,6.24-0.08c4,1.591,5.68,4.23,3.37,8.15c-0.16,0.271-0.27,0.58-0.48,1.05
				c2.63-0.13,4.74-0.97,6.49-2.819c2.14,2.81,2.34,5.75,0.97,9.029c-1.19-0.83-2.25-1.699-3.61-2.08
				c-2.53-0.699-5.77,1.41-5.68,3.98c0.05,1.67,1.32,2.93,2.51,4.04c3.15,2.939,7.22,1.87,10.01-0.55c3.03-2.63,5.31-5.79,5.94-9.88
				c0.32-2.091,0.3-4.19-0.2-6.631C191.07,197.031,192.73,199.991,193.41,203.471z"/>
			<path fill="#2F4F2C" d="M189.93,127.111c1.39,1.08,2.35,2.42,2.22,4.31c-0.14,1.96-1.54,3.05-3.48,2.68
				c-2.03-0.38-3.78-1.4-5.54-2.39c-4.45-2.53-7.54-2.22-11.45,1.13c-0.42,0.36-0.84,0.71-1.55,1.31c0.77-3.04,1.99-5.38,4.24-7.1
				C178.7,123.761,185.64,123.781,189.93,127.111z"/>
			<path fill="#FFFFFF" d="M190.23,162.331c0.87,3.79,0.21,7.27-2.13,10.71c0.04-2.51,0.16-4.77-0.57-6.95
				c-1.23-3.62-3.42-6.54-6.54-8.69c-2.95-2.03-8.51-1.88-10.56,2.01c-0.64,1.23-1.28,2.57-0.47,3.84c1.37,2.15,3.54,3.08,5.34,2.6
				c1.3-0.35,2.38-1.05,3.24-2.1c1.78,2.15,1.67,6.28-0.13,8.35c-0.61,0.7-0.94,0.38-1.44-0.11c-1.65-1.61-3.1-2.13-5.42-2.01
				c0.27,0.56,0.53,1.07,0.79,1.59c1.39,2.811,0.68,5.061-2.09,6.57c-0.7,0.38-1.46,0.66-2.11,1.1c-1.6,1.061-3.16,0.09-4.73,0
				c-1.62-0.08-2.01-0.92-1.99-2.53c0.11-7.729,0.1-15.459,0-23.189c-0.02-1.45,0.53-1.93,1.76-1.98c3.56-0.14,7.09-0.78,10.67-0.57
				c5.17,0.32,9.95,1.61,13.58,5.68C188.89,158.291,189.75,160.211,190.23,162.331z"/>
			<path fill="#2F4F2C" d="M180.96,136.531c0.02,1.85-1.42,3.36-3.24,3.39c-1.77,0.03-3.41-1.49-3.45-3.22
				c-0.05-1.87,1.45-3.48,3.29-3.53C179.47,133.131,180.94,134.581,180.96,136.531z"/>
			<path fill="#F8C107" d="M179.77,35.231c0.37,1.14-0.05,2.34-1.18,3.22c-1.8,1.4-3.74,2.32-5.98,2.82
				c-5.83,1.29-11.61,1-17.46,0.03c-2.59-0.43-5.1-1.01-7.57-1.84c-0.12-0.49-0.84-0.12-0.95-0.68c0.44-0.39,0.97-0.17,1.46-0.19
				c3.25-0.08,6.53,0.29,9.69-0.85c0.1-0.01,0.19-0.01,0.29-0.02c0.52,0.01,1.05,0.11,1.55,0.03c3.57-0.57,7.07-1.41,10.44-2.73
				c0.07-0.01,0.14-0.04,0.21-0.08c2.04-1.12,4.34-1.09,6.54-1.43C178.04,33.321,179.37,34.041,179.77,35.231z"/>
			<path fill="#F7C206" d="M173.85,21.271c0.43,2.12-0.37,3.75-1.05,5.3c-1.8,4.06-5.22,6.28-9.29,7.74
				c-5.91,2.1-12.03,1.72-18.12,1.72c-6.97,0-13.95-0.17-20.93-0.2c-0.98-0.01-1.95,0.01-2.93,0.05l-0.14-2.89
				c4.05-0.19,8.11-0.26,12.16-0.44c3.52-0.16,7.07-0.05,10.57-0.44c4.71-0.52,9.43-0.88,14.07-2.07c2.88-0.73,5.72-1.5,8.35-2.84
				c2.3-1.18,4.6-2.42,6.34-4.47C173.21,22.341,173.43,21.901,173.85,21.271z"/>
			<path fill="#86C128" d="M172.94,136.851c0.45,0.26,0.35,0.73,0.28,1.15c-0.21,1.19-0.44,2.39-0.67,3.58
				c-2.33-0.79-4.6-0.12-6.89,0.28c1.97-1.73,4.04-3.33,6.26-4.72C172.22,136.951,172.55,136.621,172.94,136.851z"/>
			<path fill="#2F4F2C" d="M172.83,90.251c0.03,0.17,0,0.36,0,0.55c-2.56-4.61-5.94-8.35-10.25-11.21
				c-5.31-3.52-11.24-5.46-17.4-6.82c-7.09-1.57-14.32-2.28-21.47-3.52c-4.05-0.7-8.04-1.65-11.67-3.66
				c-5.48-3.03-9.2-7.41-10.24-13.76c-0.68-4.16,1.67-7.74,5.13-9.51c2.39-1.22,4.96-1.8,7.61-2c7.97-0.59,15.44,1.39,22.55,4.78
				c12.24,5.84,21.86,14.61,28.78,26.29C169.33,77.251,171.6,83.561,172.83,90.251z M115.2,55.601c3.67-1.23,4.87-5.52,2.41-8.52
				c-1.52-1.86-3.52-2.77-5.36-2.82c-3.17,0-5.43,1.44-6.26,3.66c-0.76,2.03-0.02,4.56,1.94,6.22
				C110.07,55.941,112.52,56.491,115.2,55.601z"/>
			<path fill="#86C128" d="M172.55,141.581c-2.3-0.02-4.58,0.56-6.89,0.28C167.95,141.461,170.22,140.791,172.55,141.581z"/>
			<path fill="#ECD87C" d="M170.27,34.941c-0.07,0.03-0.14,0.06-0.21,0.08c-0.29,0.07-0.6-0.01-0.89,0.09
				c-3.61,1.23-7.28,2.23-11.1,2.61c0.85-0.19,1.71-0.39,2.56-0.58c2.78-0.6,5.53-1.26,8.25-2.08
				C169.32,34.921,169.81,34.971,170.27,34.941z"/>
			<path fill="#FAFAFA" d="M170.06,35.021c0.07-0.02,0.14-0.05,0.21-0.08C170.2,34.981,170.13,35.011,170.06,35.021z"/>
			<path fill="#ECD87C" d="M169.17,35.111c0.29-0.1,0.6-0.02,0.89-0.09c-3.37,1.32-6.87,2.16-10.44,2.73
				c-0.5,0.08-1.03-0.02-1.55-0.03C161.89,37.341,165.56,36.341,169.17,35.111z"/>
			<path fill="#F7C40A" d="M167.6,48.331c0.26,1.61-0.83,2.99-2.57,3.27c-2.18,0.36-4.28,0.14-6.37-0.66
				c-3.19-1.23-5.98-3.04-8.43-5.4c-0.14-0.13-0.27-0.26-0.38-0.41c-0.07-0.11-0.09-0.26-0.16-0.48c1.48-0.33,2.57,0.65,3.87,0.79
				c3.53,0.36,7.07,0.15,10.6,0.31C166.43,45.851,167.31,46.551,167.6,48.331z"/>
			<path fill="#2F4F2C" d="M167.49,90.401c0.53,2.13-0.57,4.5-2.55,5.46c-1.37,0.66-2.52,0.45-3.85-0.8
				c-1.66-1.56-2.72-3.58-3.92-5.48c-2.48-3.91-5.06-7.73-8.82-10.56c-1.21-0.91-2.53-1.68-4.01-2.66c1.2-0.18,2.18-0.06,3.11,0.16
				c6.83,1.64,12.84,4.78,17.73,9.89C166.25,87.541,167.1,88.861,167.49,90.401z"/>
			<path fill="#4D4949" d="M167.23,109.651c0.01,2.38-1.79,4.28-4.08,4.32c-2.39,0.04-4.41-1.96-4.41-4.38
				c0-2.22,2.04-4.28,4.23-4.27C165.35,105.341,167.23,107.251,167.23,109.651z"/>
			<path fill="#4D4949" d="M159.31,122.351c0.04,2.22-1.67,4.01-3.85,4.01c-2.11,0-3.83-1.75-3.83-3.88c0-2.19,1.82-4.05,3.92-4.01
				C157.49,118.501,159.28,120.351,159.31,122.351z"/>
			<path fill="#ECD87C" d="M144.11,38.131c4.6,0.57,9.11-0.6,13.67-0.39c-3.44,0.45-6.89,0.76-10.36,0.61
				c-0.43-0.02-0.98-0.08-1.02,0.46c-0.06,0.66,0.59,0.39,0.95,0.5c0.08,0.02,0.15,0.09,0.23,0.15
				C146.22,39.641,145.23,38.811,144.11,38.131z"/>
			<path fill="#2F4F2C" d="M147.92,84.981c5.21,5.62,8.47,11.94,7,19.8c-0.52,2.82-2.08,5.03-5.09,5.82
				c-2.35,0.62-3.93-0.59-3.84-3.05c0.1-2.67,1.2-5.12,1.89-7.65c1.09-3.94,1.86-7.9,0.92-11.98
				C148.57,86.931,148.22,85.961,147.92,84.981z"/>
			<path fill="#ECD87C" d="M157.78,37.741c-3.16,1.14-6.44,0.77-9.69,0.85c-0.49,0.02-1.02-0.2-1.46,0.19
				c0.11,0.56,0.83,0.19,0.95,0.68c-0.08-0.06-0.15-0.13-0.23-0.15c-0.36-0.11-1.01,0.16-0.95-0.5c0.04-0.54,0.59-0.48,1.02-0.46
				C150.89,38.501,154.34,38.191,157.78,37.741z"/>
			<path fill="#84C224" d="M151.25,152.471c0,1.95-0.01,3.9-0.01,5.85C150.57,156.371,150.59,154.421,151.25,152.471z"/>
			<path fill="#84C224" d="M151.25,152.471c-0.66,1.95-0.68,3.9-0.01,5.85c-1.62,0.36-2.72,1.62-4.12,2.38
				c-2.72,1.46-5.33,3.1-7.98,4.69c-0.39,0.24-0.74,0.39-1.17,0.13c-1.32-0.82-2.72-1.43-4.73-1.78
				C139.69,160.161,145.37,156.171,151.25,152.471z"/>
			<path fill="#4C494A" d="M145.47,128.261c1.82,0.03,3.3,1.55,3.27,3.37c-0.02,1.78-1.59,3.37-3.32,3.37
				c-1.72,0.01-3.44-1.78-3.37-3.5C142.12,129.681,143.65,128.241,145.47,128.261z"/>
			<path fill="#2F4F2C" d="M141.7,91.661c1.44,5.96-0.45,11.3-3.08,16.43c-6.02,11.71-14.97,20.78-25.82,28.07
				c-5.35,3.59-11.09,6.38-17.39,7.89c-2.85,0.68-5.76,0.9-8.68,0.28c-4.38-0.92-6.13-3.85-4.88-8.15c0.82-2.82,2.37-5.21,4.14-7.49
				c3.81-4.94,8.35-9.2,12.63-13.71c3.54-3.73,7.09-7.43,10.1-11.6c3.58-4.95,6.37-10.24,6.5-16.56c0.04-2.02-0.32-3.98-0.95-6.13
				c4.19,2.12,8.5,1.75,12.75,1.74c2.46,0,4.92-0.03,7.31,0.62C138.72,84.241,140.69,87.511,141.7,91.661z M122.19,117.571
				c1.29-4.42,0.73-8.77-0.67-13.05c-0.72-2.18-1.64-4.27-3.39-6.39c0,1.07-0.01,1.72,0,2.37c0.01,4.94-1.38,9.57-3.16,14.12
				c-0.74,1.88-1.46,3.79-1.32,5.88c0.14,2.1,1.64,3.08,3.63,2.46C119.97,122.111,121.44,120.151,122.19,117.571z M112.28,115.061
				c0.64-2.17,1.05-4.38,0.82-6.68c-0.45,0-0.52,0.18-0.57,0.36c-0.72,2.63-2.1,4.92-3.73,7.08c-3.24,4.31-7.49,7.52-11.65,10.84
				c-2.13,1.7-4.34,3.32-5.92,5.62c-0.91,1.33-1.2,2.74-0.48,4.26c0.75,1.57,2.17,1.81,3.69,1.78c2.71-0.05,4.7-1.58,6.49-3.35
				C106.59,129.411,110.06,122.581,112.28,115.061z"/>
			<path fill="#2F4F2C" d="M139.22,173.911c1.06,1.931,0.85,4.3-0.51,5.66c-1.4,1.39-3.83,1.561-5.77,0.4
				c-1.44-0.86-2.51-2.12-3.61-3.351c-2.34-2.6-4.75-5.11-8.2-6.27c-1.96-0.66-3.95-0.81-5.99-0.72c-0.7,0.04-1.4,0.08-2.11,0.11
				c4.24-2.1,8.69-2.97,13.36-2.44c3.89,0.43,7.57,1.46,10.66,4.03C137.93,172.061,138.66,172.911,139.22,173.911z"/>
			<path fill="#4C4949" d="M135.65,135.871c1.61-0.01,2.89,1.26,2.85,2.86c-0.03,1.5-1.31,2.76-2.83,2.79
				c-1.47,0.02-2.75-1.3-2.75-2.84C132.92,137.081,134.08,135.881,135.65,135.871z"/>
			<path fill="#4C4849" d="M128.46,142.551c0,1.33-0.98,2.35-2.28,2.36c-1.26,0-2.3-1.05-2.31-2.33c0-1.3,1.04-2.37,2.28-2.36
				C127.45,140.241,128.46,141.251,128.46,142.551z"/>
			<path fill="#2F4F2C" d="M125.35,176.901c1.27,1.76,1.16,3.42-0.32,4.48c-1.52,1.079-4.1,0.81-5.07-0.671
				c-0.9-1.369-1.62-2.859-2.46-4.279c-0.98-1.66-2.29-3.03-3.9-4.18c3.32-0.33,6.29,0.5,9,2.23
				C123.64,175.141,124.61,175.881,125.35,176.901z"/>
			<path fill="#FFFFFF" d="M121.52,104.521c1.4,4.28,1.96,8.63,0.67,13.05c-0.75,2.58-2.22,4.54-4.91,5.39
				c-1.99,0.62-3.49-0.36-3.63-2.46c-0.14-2.09,0.58-4,1.32-5.88c1.78-4.55,3.17-9.18,3.16-14.12c-0.01-0.65,0-1.3,0-2.37
				C119.88,100.251,120.8,102.341,121.52,104.521z"/>
			<path fill="#F7C206" d="M121.39,32.991l0.14,2.89c-3.64,0.17-7.25,0.71-10.69,1.88c-4.5,1.53-8.41,4.09-10.64,8.65
				c-1.27,2.58-2.05,5.23-2.19,8.08c-0.02,0.28-0.06,0.57-0.12,0.84c-0.05,0.22-0.15,0.43-0.27,0.76c-0.83-0.67-0.69-1.66-1.03-2.42
				c-0.81-1.84-1.52-3.73-2.18-5.63c-1.56-4.49,0.5-8.44,4.48-10.66c3.6-1.99,7.46-2.77,11.46-3.38
				C114.02,33.431,117.69,33.161,121.39,32.991z"/>
			<path fill="#FFFFFF" d="M117.61,47.081c2.46,3,1.26,7.29-2.41,8.52c-2.68,0.89-5.13,0.34-7.27-1.46
				c-1.96-1.66-2.7-4.19-1.94-6.22c0.83-2.22,3.09-3.66,6.26-3.66C114.09,44.311,116.09,45.221,117.61,47.081z M113.67,51.141
				c0.83-1.44,0.4-2.96-1.19-4.3c-0.89-0.86-1.83-0.88-2.79-0.05c-0.01,0.01-0.01,0.01-0.02,0.01v-0.01
				c-1.16,0.35-1.73,1.12-1.66,2.34c0.08,2.06,0.71,3.05,2.17,3.41C111.69,52.921,112.94,52.421,113.67,51.141z"/>
			<path fill="#373434" d="M112.48,46.841c1.59,1.34,2.02,2.86,1.19,4.3c-0.73,1.28-1.98,1.78-3.49,1.4
				c-1.46-0.36-2.09-1.35-2.17-3.41c0.8-0.89,0.41,0.15,0.45,0.3c0.19,0.82,0.51,1.58,1.39,1.8c0.76,0.19,1.25-0.32,1.54-0.96
				c0.39-0.83,0.31-1.63-0.32-2.37c-0.51-0.59-1.12-0.57-1.94-0.28c-0.02-0.02-0.03-0.03-0.04-0.05c0.27-0.37,0.43-0.57,0.58-0.77
				c0.01,0,0.01,0,0.02-0.01C110.62,46.501,111.55,46.531,112.48,46.841z"/>
			<path fill="#FFFFFF" d="M113.1,108.381c0.23,2.3-0.18,4.51-0.82,6.68c-2.22,7.52-5.69,14.35-11.35,19.91
				c-1.79,1.77-3.78,3.3-6.49,3.35c-1.52,0.03-2.94-0.21-3.69-1.78c-0.72-1.52-0.43-2.93,0.48-4.26c1.58-2.3,3.79-3.92,5.92-5.62
				c4.16-3.32,8.41-6.53,11.65-10.84c1.63-2.16,3.01-4.45,3.73-7.08C112.58,108.561,112.65,108.381,113.1,108.381z"/>
			<path fill="#84C125" d="M112.98,180.511c1.34,1.319,0.36,2.09-0.68,2.76c-2.29,1.479-4.39,3.22-6.58,4.84
				c-3.96,2.91-7.52,6.28-11.04,9.68c-3.2,3.11-6.16,6.45-8.89,9.98c-2.78,3.59-5.1,7.46-7.36,11.39c-2.3,3.99-3.71,8.3-5.33,12.53
				c-0.6,1.56-0.73,3.29-1.08,4.95c-0.12,0.54-0.25,1.08-0.37,1.62c-0.12-0.011-0.24-0.021-0.36-0.03
				c0.32-3.58,0.75-7.15,1.66-10.64c1.21-4.641,2.76-9.141,5.04-13.391c2.52-4.689,5.43-9.1,8.78-13.229
				c2.71-3.34,5.52-6.61,8.68-9.53c3.41-3.16,6.82-6.31,10.59-9.06c1.43-1.04,2.84-2.131,4.22-3.261c1.44-1.18,1.6-1.12,2.29,0.511
				C112.68,179.931,112.76,180.301,112.98,180.511z"/>
			<path fill="#FFFFFF" d="M111.07,47.901c0.63,0.74,0.71,1.54,0.32,2.37c-0.29,0.64-0.78,1.15-1.54,0.96
				c-0.88-0.22-1.2-0.98-1.39-1.8c-0.04-0.15,0.35-1.19-0.45-0.3c0.11-0.2,0.03-0.51,0.27-0.61c0.3-0.14,0.39,0.14,0.48,0.34
				c0.1,0.21,0.12,0.45,0.18,0.67c0.18,0.61,0.42,1.19,1.15,1.23c0.6,0.04,0.93-0.38,1.08-0.92c0.21-0.77-0.09-1.36-0.73-1.8
				c-0.2-0.13-0.43-0.16-0.66-0.2c-0.34-0.06-0.55-0.14-0.65-0.22C109.95,47.331,110.56,47.311,111.07,47.901z"/>
			<path fill="#DCDCDA" d="M112.48,46.841c-0.92-0.61-1.86-0.71-2.79-0.05C110.65,45.961,111.59,45.981,112.48,46.841z"/>
			<path fill="#FFFFFF" d="M109.69,46.791c0.93-0.66,1.87-0.56,2.79,0.05C111.55,46.531,110.62,46.501,109.69,46.791z"/>
			<path fill="#FFFFFF" d="M110.44,48.041c0.64,0.44,0.94,1.03,0.73,1.8c-0.15,0.54-0.48,0.96-1.08,0.92
				c-0.73-0.04-0.97-0.62-1.15-1.23c-0.06-0.22-0.08-0.46-0.18-0.67c-0.09-0.2-0.18-0.48-0.48-0.34c-0.24,0.1-0.16,0.41-0.27,0.61
				c-0.07-1.22,0.5-1.99,1.66-2.34c-0.38,0.28-0.77,0.56-0.58,0.78c-0.02,0.03-0.05,0.06-0.07,0.09c0.04-0.01,0.08-0.03,0.11-0.04
				c0.1,0.08,0.31,0.16,0.65,0.22C110.01,47.881,110.24,47.911,110.44,48.041z"/>
			<path fill="#2F4F2C" d="M109.85,148.811c0.26-0.02,0.58-0.11,0.8,0.3c-1.61,0.74-3.2,1.48-4.81,2.2
				c-13.39,5.99-22.35,15.96-26.94,29.89c-1.16,3.53-2.3,7.07-3.58,10.57c-1.76,4.85-4.59,9.05-8.26,12.68
				c-1.28,1.271-2.69,2.37-4.41,2.99c-1.99,0.71-3.34,0.07-3.95-1.94c-0.87-2.92-0.53-5.89-0.06-8.83
				c1.44-8.97,5.42-16.8,11.07-23.799c7.9-9.8,17.56-17.24,29.41-21.71C102.59,149.861,106.19,149.191,109.85,148.811z"/>
			<path fill="#DCDCDA" d="M109.67,46.791v0.01c-0.15,0.2-0.31,0.4-0.58,0.77C108.9,47.351,109.29,47.071,109.67,46.791z"/>
			<path fill="#FCFBFB" d="M109.09,47.571c0.01,0.02,0.02,0.03,0.04,0.05c-0.03,0.01-0.07,0.03-0.11,0.04
				C109.04,47.631,109.07,47.601,109.09,47.571z"/>
			<path fill="#2F4F2C" d="M108.29,69.261c0.87,1.98,0.63,3.9-0.55,5.64c-1.3,1.9-3.14,2.8-5.48,2.47c-1.41-0.2-2.73-0.65-4.05-1.71
				c2.63-1.37,4.11-3.41,4.75-6.14c0.25-1.1,0.43-2.42,2.03-2.5C106.27,66.951,107.68,67.901,108.29,69.261z"/>
			<path fill="#E67717" d="M108.92,95.591c-3.32,6.34-8.08,11.46-13.41,16.01c-4.01,3.42-8.44,6.3-13.6,7.77
				c-2,0.58-4.02,0.43-5.99-0.18c-1.55-0.48-2.27-3.24-1.49-5.05c1.24-2.92,3.88-4.09,6.47-5.34c6.87-3.31,14.31-5.26,21.09-8.81
				C104.42,98.711,106.74,97.281,108.92,95.591z"/>
			<path fill="#2F4F2C" d="M102.03,62.521c1.21,1.7,1.19,2.06-0.22,3.62c-1.22,1.34-2.89,1.9-4.45,2.67
				c-3.51,1.73-4.56,3.68-4.11,7.63c0.04,0.32,0.08,0.65,0.14,1.24c-4.05-4.48-4.71-11.58-1.66-15.92c2.3-3.26,5.55-3.69,8.61-1.12
				C100.99,61.181,101.54,61.831,102.03,62.521z"/>
			<path fill="#E67817" d="M87.89,120.801c-1.12,2-2.77,3.54-4.33,5.14c-3.2,3.31-6.43,6.59-10.01,9.5
				c-3.25,2.65-6.58,5.19-10.59,6.55c-2.18,0.75-4.54,1.12-6.69-0.2c-1.98-1.22-2.58-3.21-2.28-5.38c0.48-3.45,2.57-5.67,5.7-7.13
				c2.77-1.29,5.71-1.87,8.64-2.51c4.3-0.93,8.64-1.73,12.84-3.08C83.47,122.951,85.76,122.101,87.89,120.801z"/>
			<path fill="#E67819" d="M80.39,152.381c1.67-0.69,3.34-1.44,5.56-1.75c-5.71,2.41-10.03,5.97-13.99,10.11
				c-4.23,4.43-7.33,9.63-10.26,14.91c-2.2,3.97-3.93,8.21-5.71,12.4c-1.9,4.46-3.69,8.96-5.52,13.439
				c-1.44,3.521-2.73,7.11-4.36,10.54c-2.06,4.311-4.13,8.64-7.03,12.5c-1.74,2.33-3.94,4.04-6.48,5.32
				c-2.6,1.31-4.77-0.061-5.04-3.01c-0.21-2.36,0.23-4.641,0.62-6.971c0.67-3.92,2.01-7.62,3.2-11.37c1.1-3.46,2.7-6.71,4.18-10
				c2.41-5.33,5.43-10.319,8.82-15.06c3.83-5.36,7.91-10.56,12.79-15.05c2.08-1.91,3.98-4.02,6.21-5.71
				c2.68-2.02,5.37-4.05,8.31-5.75C74.53,155.291,77.36,153.641,80.39,152.381z"/>
			<path fill="#E67718" d="M71.55,149.941c1.32-0.41,2.65-0.78,3.97-1.21c-1.65,1.54-3.57,2.68-5.44,3.86
				c-3.39,2.13-6.52,4.6-9.53,7.22c-5.19,4.5-10.04,9.36-14.28,14.78c-3.52,4.5-6.89,9.1-9.75,14.09
				c-2.68,4.689-5.29,9.39-7.59,14.29c-2.47,5.27-4.51,10.71-6.81,16.029c-1.43,3.32-3.46,6.37-6.9,8.091
				c-1.23,0.619-2.28,0.22-3.44-0.41c-1-0.54-0.51-1.28-0.61-1.94c-0.72-4.43,0.96-8.439,2.35-12.479
				c2.68-7.811,6.6-14.98,11.19-21.83c3.29-4.9,6.95-9.471,10.87-13.84c3.97-4.4,8.27-8.47,12.78-12.34
				c4.03-3.46,8.29-6.59,12.86-9.26C64.52,153.061,67.83,151.101,71.55,149.941z"/>
		</g>
		<g>
		</g>
	</g>
</g>
</svg>
